<?xml version="1.0" encoding="UTF-8"?>
<svg width="327px" height="184px" viewBox="0 0 327 184" version="1.1" xmlns="http://www.w3.org/2000/svg" xmlns:xlink="http://www.w3.org/1999/xlink">
    <!-- Generator: Sketch 59.1 (86144) - https://sketch.com -->
    <title>Redeem-InStore-Button-BG</title>
    <desc>Created with Sketch.</desc>
    <g id="Asset-Exports" stroke="none" stroke-width="1" fill="none" fill-rule="evenodd">
        <g id="Redeem-InStore-Button-BG">
            <path d="M222.186362,6.30517868 L214.949725,5.76114053 C170.538973,2.51144969 153.987963,4.29887271 115.394907,6.78494783 C98.0679616,7.90110949 74.1394493,4.329562 39.4631321,11.7966669 C5.13357802,19.1891007 2.62977936,37.1898974 0.291702138,61.7494949 L0.22086941,62.4957285 C-0.227158622,67.2274472 0.0818804649,77.6766515 0.47948191,87.2498801 L1.27453673,105.175793 C1.75163745,114.104611 5.07582345,145.167156 19.0358868,160.296164 C28.3155848,170.352897 69.2077643,182.058007 119.127652,182.301462 L120.643116,182.305318 C149.921238,182.311494 167.496097,185.749945 198.21766,182.813849 L201.812243,182.460432 C233.927796,179.410758 289.799865,178.825455 309.677753,159.798669 L310.462445,159.034968 C316.818698,152.736037 326.420049,140.237518 326.619948,107.88493 L326.633156,102.760082 C326.787618,70.3323953 328.589959,46.1922542 322.501101,31.0678699 C314.194548,10.4348545 284.45044,10.9460981 222.186362,6.30517868 L222.186362,6.30517868 Z" id="outline" fill="#4C2049"></path>
            <path d="M222.186362,2.30517868 L214.949725,1.76114053 C170.538973,-1.48855031 153.987963,0.298872705 115.394907,2.78494783 C98.0679616,3.90110949 74.1394493,0.329561995 39.4631321,7.79666687 C5.13357802,15.1891007 2.62977936,33.1898974 0.291702138,57.7494949 L0.22086941,58.4957285 C-0.227158622,63.2274472 0.0818804649,73.6766515 0.47948191,83.2498801 L1.27453673,101.175793 C1.75163745,110.104611 5.07582345,141.167156 19.0358868,156.296164 C28.3155848,166.352897 69.2077643,178.058007 119.127652,178.301462 L120.643116,178.305318 C149.921238,178.311494 167.496097,181.749945 198.21766,178.813849 L201.812243,178.460432 C233.927796,175.410758 289.799865,174.825455 309.677753,155.798669 L310.462445,155.034968 C316.818698,148.736037 326.420049,136.237518 326.619948,103.88493 L326.633156,98.7600816 C326.787618,66.3323953 328.589959,42.1922542 322.501101,27.0678699 C314.194548,6.43485447 284.45044,6.94609809 222.186362,2.30517868 L222.186362,2.30517868 Z" id="outline" fill="#643B59"></path>
        </g>
    </g>
</svg>