<?xml version="1.0" encoding="UTF-8"?>
<svg width="43px" height="14px" viewBox="0 0 43 14" version="1.1" xmlns="http://www.w3.org/2000/svg" xmlns:xlink="http://www.w3.org/1999/xlink">
    <!-- Generator: Sketch 59.1 (86144) - https://sketch.com -->
    <title>Options-Menu_Active-Selection-Bat</title>
    <desc>Created with Sketch.</desc>
    <g id="Options-Menu_Active-Selection-Bat" stroke="none" stroke-width="1" fill="none" fill-rule="evenodd">
        <path d="M21.5028019,14 L21.4517996,13.9549032 C21.4517996,13.9549032 22.4036459,11.8581005 25.5877339,10.8765793 C27.0263692,10.496678 28.5595808,10.5843885 29.970309,11.1272934 C31.481029,6.22223979 35.823794,7.45289622 35.823794,7.45289622 L35.8164332,7.3533122 C35.7969919,6.9234574 35.8415644,5.1573987 37.6419943,3.14171993 C39.8221469,0.697105233 41.0501899,0.843065891 42.1087127,0.685045947 L41.8518122,0.59815101 C41.0226217,0.333770889 38.3240406,-0.402037028 35.7919238,0.285952355 C30.9680514,1.59546368 29.3047274,6.89900655 29.3047274,6.89900655 L29.0130921,6.04167735 L28.8642654,6.20525263 C28.2297449,6.88216123 25.6343859,9.44782618 22.3957769,9.85669137 C23.0058025,9.11055915 23.3045418,8.15176651 23.2315003,7.17446814 L23.2177486,6.78984996 C23.1368141,5.17880384 22.8126858,5.14602911 22.8126858,5.14602911 C22.5144557,5.74706557 22.2704825,6.37486887 22.0836222,7.02208997 C21.9637782,7.66352971 21.3719882,6.4563327 21.2093944,6.45078442 C21.0468006,6.44523614 20.5498387,7.68031572 20.3771204,7.0274475 C20.1965352,6.51443619 19.9803398,6.01414032 19.7302268,5.53029784 L19.536309,5.1705594 C19.536309,5.1705594 19.1559918,5.21924412 19.2600053,7.19406631 C19.2544872,8.16906152 19.6117648,9.12067152 20.2618174,9.86239641 C16.4975235,9.43093195 13.4230036,6.13546602 13.4230036,6.13546602 L13.1959636,7.00207351 L13.0618584,6.68500341 C12.5419139,5.52737699 10.4764615,1.54017683 6.28282675,0.457328673 C3.19713639,-0.33396132 -7.10542736e-15,0.922187182 -7.10542736e-15,0.922187182 L0.79312296,1.01323106 C1.70546545,1.13779379 2.83517534,1.47905015 4.61815619,3.32804748 C6.84214899,5.63342261 6.72617513,7.64409449 6.72617513,7.64409449 L6.8313495,7.60564958 C7.48078752,7.38589645 10.9775619,6.46048699 12.8092803,11.2546706 L13.0490094,11.1748701 C13.7128354,10.9676011 15.628241,10.4624781 17.1770709,10.9701508 C20.6690479,12.0966241 21.5028019,14 21.5028019,14 Z" id="Bat" fill="#ADEDF9" fill-rule="nonzero"></path>
    </g>
</svg>