<?xml version="1.0" encoding="UTF-8"?>
<svg width="20px" height="20px" viewBox="0 0 20 20" version="1.1" xmlns="http://www.w3.org/2000/svg" xmlns:xlink="http://www.w3.org/1999/xlink">
    <!-- Generator: Sketch 59.1 (86144) - https://sketch.com -->
    <title>Share-Icon</title>
    <desc>Created with Sketch.</desc>
    <g id="Share-Icon" stroke="none" stroke-width="1" fill="none" fill-rule="evenodd">
        <path d="M16,14.1365462 C15.24,14.1365462 14.56,14.437751 14.04,14.9096386 L6.91,10.7429719 C6.96,10.5120482 7,10.2811245 7,10.0401606 C7,9.79919679 6.96,9.56827309 6.91,9.3373494 L13.96,5.21084337 C14.5,5.71285141 15.21,6.02409639 16,6.02409639 C17.66,6.02409639 19,4.67871486 19,3.01204819 C19,1.34538153 17.66,0 16,0 C14.34,0 13,1.34538153 13,3.01204819 C13,3.25301205 13.04,3.48393574 13.09,3.71485944 L6.04,7.84136546 C5.5,7.33935743 4.79,7.02811245 4,7.02811245 C2.34,7.02811245 1,8.37349398 1,10.0401606 C1,11.7068273 2.34,13.0522088 4,13.0522088 C4.79,13.0522088 5.5,12.7409639 6.04,12.2389558 L13.16,16.4156627 C13.11,16.626506 13.08,16.8473896 13.08,17.0682731 C13.08,18.684739 14.39,20 16,20 C17.61,20 18.92,18.684739 18.92,17.0682731 C18.92,15.4518072 17.61,14.1365462 16,14.1365462 Z" id="Path" fill="#4C4C4C" fill-rule="nonzero"></path>
    </g>
</svg>